<?xml version="1.0" standalone="no"?>
<!DOCTYPE svg PUBLIC "-//W3C//DTD SVG 20010904//EN"
 "http://www.w3.org/TR/2001/REC-SVG-20010904/DTD/svg10.dtd">
<svg version="1.0" xmlns="http://www.w3.org/2000/svg"
 width="300.000000pt" height="300.000000pt" viewBox="0 0 300.000000 300.000000"
 preserveAspectRatio="xMidYMid meet">
<metadata>
Created by potrace 1.10, written by Peter Selinger 2001-2011
</metadata>
<g transform="translate(0.000000,300.000000) scale(0.100000,-0.100000)"
fill="#6fa8dc" stroke="none">
<path d="M1441 2406 c5 -5 526 -15 781 -16 l168 0 -3 -852 -2 -853 -47 -3 -48
-3 0 793 c0 714 -1 794 -16 805 -12 8 -114 10 -392 7 -207 -3 -378 -7 -381
-10 -2 -2 170 -4 382 -4 l387 0 0 -805 0 -805 70 0 70 0 0 875 0 875 -487 0
c-267 0 -484 -2 -482 -4z"/>
<path d="M587 1465 c2 -481 5 -875 8 -875 3 0 206 0 452 0 245 0 444 2 442 4
-4 4 -580 15 -781 16 l-98 0 0 850 c0 468 3 851 8 851 4 1 26 3 50 4 l42 3 0
-788 c0 -704 2 -790 16 -804 14 -14 60 -15 422 -10 224 4 409 8 411 10 2 2
-183 4 -412 4 l-417 0 0 805 0 805 -72 0 -73 0 2 -875z"/>
<path d="M1453 2273 c9 -2 23 -2 30 0 6 3 -1 5 -18 5 -16 0 -22 -2 -12 -5z"/>
<path d="M1110 1750 c0 -38 2 -40 30 -40 l30 0 0 -210 0 -210 -30 0 c-28 0
-30 -2 -30 -40 l0 -40 168 0 c143 0 173 3 209 20 101 45 122 185 39 258 l-34
30 25 24 c71 72 33 210 -66 238 -20 5 -105 10 -188 10 l-153 0 0 -40z m316 5
c16 -5 31 -9 34 -9 40 -9 71 -63 65 -115 -3 -39 -12 -56 -53 -100 -11 -12 -6
-21 32 -58 42 -40 46 -48 46 -91 0 -59 -29 -108 -75 -128 -41 -17 -335 -21
-335 -4 0 6 7 10 15 10 8 0 22 11 30 24 14 21 15 52 10 227 -6 200 -11 229
-41 229 -8 0 -14 4 -14 10 0 16 231 20 286 5z"/>
<path d="M1293 1732 c-12 -2 -27 -10 -34 -18 -15 -19 -17 -160 -1 -176 7 -7
42 -11 86 -10 96 1 117 17 124 94 3 48 1 56 -25 80 -28 27 -87 39 -150 30z
m139 -52 c26 -32 23 -76 -7 -105 -21 -22 -33 -25 -90 -25 l-65 0 0 81 0 82 72
-5 c59 -5 75 -10 90 -28z"/>
<path d="M1285 1492 c-32 -6 -34 -13 -37 -111 -2 -109 0 -111 93 -117 100 -7
152 36 151 123 -2 88 -83 129 -207 105z m166 -51 c11 -13 19 -38 19 -60 -1
-66 -38 -91 -134 -91 l-66 0 0 91 0 91 81 -4 c70 -3 83 -6 100 -27z"/>
<path d="M1665 1750 c0 -38 1 -40 33 -40 l32 0 0 -210 0 -210 -32 0 c-32 0
-33 -2 -33 -40 l0 -40 113 0 112 0 0 40 c0 38 -2 40 -30 40 l-30 0 0 210 0
210 30 0 c28 0 30 2 30 40 l0 40 -112 0 -113 0 0 -40z m193 6 c6 -7 -19 -31
-40 -38 -5 -2 -10 -98 -11 -215 -2 -194 -1 -212 17 -232 10 -11 22 -18 27 -16
4 3 10 1 14 -5 3 -5 0 -10 -7 -11 -7 0 -31 -2 -53 -5 -44 -5 -105 3 -105 14 0
4 13 14 28 23 l28 16 -3 144 c-1 79 -2 176 -2 214 -1 68 -2 71 -32 89 -23 14
-28 21 -18 27 16 10 146 5 157 -5z"/>
</g>
</svg>
