<?xml version="1.0" standalone="no"?>
<!DOCTYPE svg PUBLIC "-//W3C//DTD SVG 20010904//EN"
 "http://www.w3.org/TR/2001/REC-SVG-20010904/DTD/svg10.dtd">
<svg version="1.0" xmlns="http://www.w3.org/2000/svg"
 width="300.000000pt" height="300.000000pt" viewBox="0 0 300.000000 300.000000"
 preserveAspectRatio="xMidYMid meet">
<metadata>
Created by potrace 1.10, written by Peter Selinger 2001-2011
</metadata>
<g transform="translate(0.000000,300.000000) scale(0.100000,-0.100000)"
fill="#3d85c6" stroke="none">
<path d="M1207 2479 c-197 -17 -418 -61 -610 -120 l-99 -30 5 -442 c4 -360 7
-454 20 -509 22 -89 51 -174 89 -260 25 -55 33 -67 39 -52 3 10 22 55 40 99
30 71 33 88 30 150 -11 182 -9 205 31 285 34 70 111 191 157 250 20 25 20 25
35 5 22 -30 29 -12 17 45 -15 69 -14 154 2 193 20 46 91 107 125 107 28 0 69
-36 120 -103 21 -28 21 -28 159 -32 154 -4 294 -26 361 -56 48 -21 63 -19 42
6 -11 13 -3 19 53 45 125 59 162 51 192 -39 17 -53 13 -95 -17 -154 l-19 -37
31 -39 c33 -41 38 -60 27 -103 -8 -31 -27 -38 -27 -9 0 66 -64 130 -118 116
-38 -9 -72 -44 -72 -74 0 -14 13 -48 28 -76 24 -45 31 -50 65 -53 21 -2 37 1
37 7 0 6 -9 11 -20 11 -12 0 -30 16 -47 41 -26 40 -27 42 -8 55 25 19 70 18
90 -2 11 -11 15 -29 13 -52 -2 -31 1 -37 21 -42 16 -4 29 -19 42 -50 22 -56
24 -111 3 -180 -13 -45 -14 -60 -4 -91 21 -61 8 -124 -38 -188 -36 -51 -43
-56 -76 -55 -43 1 -62 16 -82 63 l-15 36 -33 -38 c-28 -34 -43 -41 -112 -58
-144 -34 -198 -24 -256 46 -39 47 -48 70 -48 124 0 89 -23 107 -35 26 -13 -81
-18 -82 -128 -46 -114 38 -138 56 -161 116 -17 43 -35 59 -37 33 -1 -23 -8
-82 -14 -116 -3 -18 -30 -67 -60 -110 -60 -89 -75 -131 -75 -218 0 -102 22
-155 98 -235 77 -83 239 -207 408 -314 l119 -75 6 83 c4 55 13 95 27 122 24
44 181 215 199 215 6 0 14 -17 18 -37 14 -76 64 -143 106 -143 22 0 191 143
281 239 212 226 323 446 358 711 5 41 10 251 10 467 l0 392 -98 30 c-205 63
-401 101 -622 121 -130 11 -441 11 -573 -1z m568 -23 c17 -2 64 -7 105 -11
106 -10 205 -29 375 -71 17 -5 35 -9 40 -9 27 -4 71 -19 83 -28 6 -5 12 -7 12
-3 0 10 73 -23 82 -37 4 -7 6 -48 3 -91 -4 -60 -6 -418 -4 -546 3 -148 -22
-323 -58 -410 -3 -8 -8 -23 -9 -32 -3 -15 -35 -82 -79 -169 -5 -10 -14 -19
-20 -19 -6 0 -12 -10 -12 -22 -1 -13 -7 -24 -13 -26 -5 -2 -10 -8 -10 -13 0
-28 -245 -302 -277 -311 -7 -2 -40 -29 -74 -60 l-61 -58 -28 17 c-29 17 -57
66 -66 118 -5 31 -19 45 -43 45 -20 0 -175 -161 -207 -215 -18 -32 -28 -65
-32 -110 -2 -36 -8 -65 -12 -65 -13 0 -94 48 -117 70 -12 11 -25 20 -29 20
-17 0 -224 154 -224 167 0 8 -4 12 -10 8 -12 -7 -140 113 -140 132 0 8 -4 12
-9 9 -10 -6 -35 54 -26 62 3 3 0 11 -6 18 -6 7 -11 48 -10 91 0 107 4 120 62
199 45 62 69 116 69 157 l0 32 31 -38 c17 -20 37 -37 45 -37 8 0 14 -4 14 -10
0 -5 6 -10 14 -10 8 0 27 -5 43 -12 15 -6 33 -12 38 -13 6 -2 29 -8 53 -14 36
-10 48 -10 67 3 22 15 24 14 33 -14 10 -27 43 -70 85 -111 10 -9 39 -22 63
-28 24 -6 44 -16 44 -21 0 -6 -4 -10 -10 -10 -18 0 -10 -49 12 -69 12 -12 36
-23 53 -27 32 -6 198 -1 225 7 26 8 62 43 75 74 11 25 11 31 -4 42 -14 11 -11
12 21 13 32 0 42 6 71 45 19 24 38 41 42 37 5 -4 5 -2 2 4 -4 6 1 27 10 45 11
23 16 52 14 89 -4 79 -3 136 4 205 9 74 -7 137 -42 169 -25 23 -25 24 -5 30
11 4 25 20 32 37 15 35 2 92 -29 128 -19 21 -19 22 0 71 20 53 25 130 10 146
-5 5 -11 18 -13 29 -4 29 -57 65 -94 65 -45 0 -145 -41 -177 -72 -16 -16 -21
-17 -45 -4 -37 19 -266 48 -377 47 l-89 0 -61 66 c-40 43 -69 66 -85 67 -52 4
-124 -52 -158 -124 -14 -28 -16 -53 -12 -123 3 -61 2 -87 -6 -87 -7 0 -24 -17
-40 -37 -15 -21 -31 -40 -34 -43 -10 -9 -130 -213 -130 -222 0 -5 -4 -7 -8 -4
-4 2 -9 -5 -9 -17 -1 -12 -6 -42 -13 -66 -7 -30 -8 -60 0 -99 17 -95 13 -147
-19 -217 -17 -36 -33 -65 -36 -65 -4 0 -5 7 -1 15 3 8 1 15 -3 15 -12 0 -57
128 -81 230 -17 76 -19 127 -20 490 -1 223 -1 412 -1 421 1 15 39 37 72 42 8
2 19 6 25 10 22 13 300 76 409 91 60 9 164 19 230 23 66 3 122 7 124 9 5 5
343 -5 386 -10z m165 -696 c0 -9 -15 -14 -34 -11 -4 1 -19 -5 -32 -14 -26 -17
-33 -4 -11 20 14 16 77 20 77 5z m-107 -689 c13 -26 13 -29 -2 -26 -9 2 -24 4
-34 4 -17 1 -17 2 0 26 10 13 19 25 20 25 1 0 8 -13 16 -29z m42 -63 c28 -12
30 -20 14 -50 -19 -35 -86 -58 -174 -57 -104 0 -150 15 -150 49 0 20 8 27 40
38 95 32 224 41 270 20z"/>
<path d="M1043 2118 c-37 -41 -46 -68 -39 -122 10 -74 25 -120 51 -152 l22
-28 53 47 c29 26 56 47 61 47 5 0 9 4 9 8 0 14 -121 222 -129 222 -4 0 -17
-10 -28 -22z m36 -33 c1 6 14 -15 29 -45 16 -30 36 -67 45 -81 15 -22 15 -28
2 -45 -8 -10 -15 -15 -15 -11 0 4 -11 -4 -23 -19 -32 -37 -51 -27 -72 36 -20
59 -17 149 5 175 13 16 15 16 21 -2 4 -10 8 -13 8 -8z"/>
<path d="M1917 2001 c-62 -68 -62 -74 -12 -109 l45 -31 14 27 c23 45 29 91 16
123 -7 16 -16 29 -20 29 -4 0 -24 -18 -43 -39z m33 -75 c-10 -27 -11 -28 -30
-11 -21 19 -17 41 15 67 19 16 20 15 23 -6 2 -12 -2 -35 -8 -50z"/>
<path d="M1364 1778 c-32 -22 -56 -49 -72 -81 -29 -59 -24 -82 18 -73 21 4 40
-1 63 -14 32 -20 97 -27 97 -11 0 5 -11 12 -25 15 -14 4 -32 17 -41 30 -20 32
-5 62 43 82 76 32 159 -38 107 -91 -25 -25 -7 -31 24 -8 34 25 56 86 42 114
-6 10 -27 30 -48 44 -29 20 -49 25 -98 25 -53 0 -68 -5 -110 -32z m181 -8 c19
-12 38 -34 44 -53 l11 -32 -23 26 c-12 15 -36 33 -52 42 -26 13 -36 13 -69 2
-21 -7 -48 -23 -61 -35 -26 -24 -39 -60 -22 -60 7 0 6 -5 -2 -12 -10 -9 -15
-10 -18 -2 -2 6 -14 9 -27 7 -21 -4 -23 -2 -19 21 3 14 10 26 15 26 5 0 7 4 4
9 -3 5 10 21 29 35 19 15 35 25 35 22 0 -3 11 1 24 7 39 21 94 20 131 -3z"/>
<path d="M1645 1668 c4 -18 13 -40 19 -48 7 -8 22 -42 35 -75 12 -33 29 -71
36 -86 8 -14 15 -37 17 -52 5 -36 18 -47 18 -15 0 38 -111 308 -126 308 -3 0
-2 -15 1 -32z"/>
<path d="M969 1678 c-1 -7 -2 -79 -3 -159 -1 -145 -1 -146 -31 -188 -100 -140
-95 -129 -94 -195 0 -33 4 -83 9 -111 6 -41 8 -29 8 61 0 107 10 154 33 154 6
0 7 5 4 10 -3 6 -2 10 4 10 5 0 27 28 48 63 l38 62 -1 143 c-1 78 2 142 6 142
5 0 16 -21 25 -47 45 -127 78 -150 240 -168 115 -13 179 -25 196 -38 44 -33
76 -178 55 -247 -14 -45 -16 -79 -6 -102 7 -19 9 -15 9 23 1 25 8 67 18 94 18
53 14 77 -27 187 -13 37 -28 59 -45 66 -13 6 -80 18 -147 27 -213 28 -235 40
-273 156 -17 50 -26 65 -43 67 -13 2 -23 -2 -23 -10z"/>
<path d="M1602 1603 c28 -32 100 -233 93 -260 -4 -16 -2 -22 5 -18 17 11 11
67 -15 130 -14 33 -25 63 -25 68 0 22 -44 97 -58 97 -13 0 -14 -2 0 -17z"/>
<path d="M2020 1525 c-8 -8 -28 -26 -44 -38 l-29 -24 32 -56 c18 -32 34 -57
37 -57 7 0 -8 54 -16 60 -4 3 -12 15 -19 27 -9 18 -8 24 7 35 18 12 59 68 50
68 -2 0 -10 -7 -18 -15z"/>
<path d="M1776 1360 c-33 -10 -66 -38 -66 -55 0 -7 21 -15 52 -18 70 -9 85
-25 70 -74 -6 -20 -9 -39 -6 -42 11 -11 40 18 59 58 11 23 27 43 35 45 8 2 27
7 41 10 47 10 48 59 2 77 -30 11 -148 10 -187 -1z m184 -25 c18 -11 10 -23
-21 -30 -17 -4 -40 -18 -51 -31 l-21 -23 -19 24 c-12 16 -34 27 -59 31 -62 10
-49 26 31 37 35 5 128 -1 140 -8z"/>
<path d="M1711 600 c-8 -32 -10 -72 -6 -110 4 -35 3 -60 -2 -60 -5 0 -18 -8
-29 -18 -10 -10 -47 -35 -81 -56 -58 -36 -94 -66 -79 -66 14 0 185 114 181
120 -3 4 3 7 12 6 15 -1 17 12 18 116 0 65 0 118 -1 118 0 0 -6 -23 -13 -50z"/>
</g>
</svg>
